<?xml version="1.0" encoding="utf-8"?>
<!-- Generator: Adobe Illustrator 27.5.0, SVG Export Plug-In . SVG Version: 6.00 Build 0)  -->
<svg version="1.1" id="Layer_1" xmlns="http://www.w3.org/2000/svg" xmlns:xlink="http://www.w3.org/1999/xlink" x="0px" y="0px"
	 viewBox="0 0 1000 1000" style="enable-background:new 0 0 1000 1000;" xml:space="preserve">
<g>
	<rect x="0.748" style="fill:#FFFFFF;" width="1000" height="1000"/>
</g>
<g>
	<g>
		<path style="fill:none;stroke:#000000;stroke-width:2;stroke-linecap:round;stroke-miterlimit:10;stroke-dasharray:10,10;" d="
			M74.191,137.355c43.602-17.074,97.968-0.131,124.15,38.691c8.14,12.069,12.644,30.629,1.114,39.516
			c-9.097,7.012-23.396,2.511-30.102-6.813s-7.451-21.66-6.375-33.095c2.71-28.79,15.715-56.504,36.129-76.985
			c19.847-19.914,46.554-32.848,74.472-36.13"/>
		<g>
			<path d="M261.156,73.729c-0.35-0.426-0.286-1.057,0.142-1.408l11.833-9.698l-13.792-6.622c-0.499-0.239-0.71-0.837-0.471-1.334
				c0.239-0.497,0.842-0.705,1.336-0.469l15.207,7.302c0.307,0.148,0.519,0.443,0.56,0.783s-0.096,0.676-0.359,0.893l-13.047,10.694
				c-0.154,0.125-0.332,0.197-0.515,0.219C261.723,74.127,261.381,74.003,261.156,73.729z"/>
		</g>
	</g>
	<g>
		<path style="fill:none;stroke:#000000;stroke-width:2;stroke-linecap:round;stroke-miterlimit:10;stroke-dasharray:10,10;" d="
			M273.56,219.166c-12.569-22.552-3.437-54.518,19.149-67.027c25.759-14.267,58.304-3.273,86.904-10.284
			c18.959-4.648,35.715-17.632,44.947-34.831c8.853-16.492,10.655-36.608,4.966-54.43"/>
		<g>
			<path d="M442.893,62.588c-0.349,0.427-0.98,0.489-1.408,0.138l-11.838-9.692L425.87,67.86c-0.136,0.536-0.681,0.861-1.215,0.724
				c-0.534-0.137-0.857-0.687-0.723-1.218l4.166-16.347c0.085-0.33,0.332-0.596,0.657-0.703s0.682-0.039,0.946,0.176l13.053,10.687
				c0.153,0.127,0.259,0.287,0.316,0.461C443.172,61.954,443.117,62.313,442.893,62.588z"/>
		</g>
	</g>
	<g>
		<path style="fill:none;stroke:#000000;stroke-width:2;stroke-linecap:round;stroke-miterlimit:10;stroke-dasharray:10,10;" d="
			M332.729,179.467c6.067,21.566,24.382,39.225,46.155,44.501c21.773,5.277,46.14-2.038,61.407-18.434
			c9.753-10.474,15.666-23.881,23.921-35.572c8.255-11.691,20.387-22.305,34.698-22.422c21.542-0.176,35.847,22.227,55.607,30.809
			c22.366,9.714,51.453-2.384,60.834-24.736"/>
		<g>
			<path d="M619.341,169.827c-0.541,0.108-1.068-0.245-1.175-0.788l-2.988-15.005l-12.334,9.052
				c-0.446,0.328-1.073,0.233-1.399-0.212c-0.326-0.445-0.226-1.075,0.215-1.4l13.6-9.981c0.275-0.201,0.635-0.25,0.954-0.126
				s0.552,0.403,0.619,0.737l3.295,16.545c0.037,0.195,0.018,0.386-0.049,0.557C619.959,169.514,619.688,169.757,619.341,169.827z"
				/>
		</g>
	</g>
	<g>
		<path style="fill:none;stroke:#000000;stroke-width:2;stroke-linecap:round;stroke-miterlimit:10;stroke-dasharray:10,10;" d="
			M694.669,160.171c-4.098-20.402-16.868-38.913-34.485-49.988s-39.835-14.558-59.996-9.407
			c-20.403,5.213-38.288,18.676-59.119,21.764c-29.711,4.404-60.912-16.518-68.563-45.453"/>
		<g>
			<path d="M485.098,88.072c-0.381,0.399-1.015,0.412-1.415,0.029l-11.057-10.574l-4.907,14.491
				c-0.177,0.524-0.745,0.806-1.268,0.629c-0.522-0.178-0.802-0.751-0.627-1.27l5.41-15.978c0.11-0.322,0.377-0.569,0.709-0.651
				s0.683,0.013,0.93,0.248l12.192,11.659c0.142,0.138,0.236,0.306,0.28,0.484C485.424,87.461,485.342,87.815,485.098,88.072z"/>
		</g>
	</g>
	<g>
		<path style="fill:none;stroke:#000000;stroke-width:2;stroke-linecap:round;stroke-miterlimit:10;stroke-dasharray:10,10;" d="
			M741.924,132.238c-11.443-11.611-23.662-25.036-23.568-41.338c0.122-20.994,21.945-36.599,42.912-37.665
			s40.873,8.366,59.741,17.572c8.216,4.009,16.83,8.36,21.83,16.014s4.569,19.642-3.296,24.301
			c-10.05,5.953-22.881-4.62-25.316-16.044c-2.784-13.057,2.653-27.005,12.041-36.498s22.246-14.94,35.332-17.586
			c14.112-2.854,29.283-2.575,42.302,3.572c13.019,6.147,23.417,18.895,24.185,33.272c0.7,13.093-6.246,25.287-13.575,36.159
			c-7.329,10.872-15.497,21.818-17.793,34.727c-2.153,12.109,2.939,26.528,14.019,31.113"/>
		<g>
			<path d="M894.677,184.397c-0.128-0.537,0.207-1.076,0.745-1.203l14.889-3.521l-9.486-12.003
				c-0.343-0.434-0.271-1.064,0.162-1.406c0.433-0.341,1.066-0.264,1.407,0.165l10.459,13.236c0.211,0.268,0.272,0.626,0.16,0.949
				c-0.112,0.323-0.383,0.566-0.714,0.645l-16.417,3.882c-0.193,0.044-0.385,0.031-0.559-0.029
				C895.012,185.003,894.76,184.742,894.677,184.397z"/>
		</g>
	</g>
	<g>
		<path style="fill:none;stroke:#000000;stroke-width:2;stroke-linecap:round;stroke-miterlimit:10;stroke-dasharray:10,10;" d="
			M640.574,232.821c16.106-29.454,51.078-43.428,84.348-47.902c54.994-7.395,112.491,5.642,158.949,35.973"/>
		<g>
			<path d="M867.163,221.706c-0.002-0.552,0.447-1,1.001-1l15.299-0.022l-6.489-13.855c-0.235-0.501-0.02-1.098,0.48-1.331
				c0.5-0.233,1.098-0.013,1.332,0.482l7.155,15.277c0.144,0.309,0.122,0.672-0.062,0.96c-0.183,0.289-0.502,0.463-0.843,0.464
				l-16.87,0.024c-0.198-0.001-0.382-0.058-0.537-0.156C867.35,222.374,867.164,222.061,867.163,221.706z"/>
		</g>
	</g>
	<g>
		<path style="fill:none;stroke:#000000;stroke-width:2;stroke-linecap:round;stroke-miterlimit:10;stroke-dasharray:10,10;" d="
			M121.663,209.195c-17.971-7.33-35.315-17.061-48.681-31.134c-13.366-14.073-22.456-32.914-21.951-52.316
			c0.48-18.451,9.492-35.859,21.598-49.792c11.58-13.328,25.905-23.917,40.223-34.273"/>
		<g>
			<path d="M107.48,57.503c-0.514-0.2-0.767-0.782-0.565-1.297l5.576-14.247L97.223,42.93c-0.552,0.035-1.029-0.383-1.063-0.933
				c-0.034-0.551,0.389-1.027,0.936-1.063l16.836-1.071c0.34-0.021,0.67,0.133,0.871,0.409c0.202,0.276,0.247,0.637,0.124,0.954
				l-6.148,15.709c-0.073,0.184-0.193,0.335-0.342,0.443C108.17,57.573,107.811,57.632,107.48,57.503z"/>
		</g>
	</g>
	<g>
		<path style="fill:none;stroke:#000000;stroke-width:2;stroke-linecap:round;stroke-miterlimit:10;stroke-dasharray:10,10;" d="
			M121.665,249.982c-32.802,7.516-56.554,40.717-56.821,74.367s20.679,65.618,49.815,82.455
			c29.137,16.837,65.197,19.48,97.82,11.224c18.105-4.582,35.827-12.666,48.641-26.252c12.814-13.587,20.012-33.31,15.49-51.43
			c-4.522-18.12-22.416-32.941-40.982-30.921s-33.261,23.527-25.884,40.684c6.61,15.372,25.223,21.013,41.705,23.904
			c45.868,8.045,93.012,8.772,139.107,2.152"/>
		<g>
			<path d="M378.218,387.387c-0.354-0.423-0.295-1.055,0.13-1.409l11.751-9.798l-13.847-6.506c-0.501-0.235-0.717-0.831-0.482-1.33
				s0.836-0.712,1.332-0.481l15.268,7.174c0.308,0.145,0.523,0.439,0.567,0.778c0.044,0.339-0.09,0.677-0.351,0.896l-12.956,10.803
				c-0.153,0.126-0.331,0.2-0.513,0.223C378.789,387.78,378.446,387.659,378.218,387.387z"/>
		</g>
	</g>
	<g>
		<path style="fill:none;stroke:#000000;stroke-width:2;stroke-linecap:round;stroke-miterlimit:10;stroke-dasharray:10,10;" d="
			M145.26,327.319c14.017-31.296,43.87-54.995,77.53-61.548s70.223,4.218,94.956,27.971c11.543,11.085,21.84,25.485,37.509,28.739
			c13.281,2.758,26.816-3.525,37.787-11.502c10.971-7.977,20.676-17.86,32.759-24.022c11.363-5.795,26.012-7.591,36.518-0.727"/>
		<g>
			<path d="M445.613,286.03c0.031-0.551,0.505-0.972,1.058-0.94l15.274,0.878l-5.663-14.213c-0.205-0.514,0.044-1.097,0.557-1.301
				c0.513-0.204,1.097,0.051,1.301,0.56l6.244,15.671c0.125,0.317,0.082,0.678-0.118,0.955c-0.2,0.277-0.529,0.433-0.869,0.414
				l-16.842-0.968c-0.198-0.013-0.378-0.08-0.527-0.187C445.76,286.707,445.593,286.385,445.613,286.03z"/>
		</g>
	</g>
	<g>
		<path style="fill:none;stroke:#000000;stroke-width:2;stroke-linecap:round;stroke-miterlimit:10;stroke-dasharray:10,10;" d="
			M431.695,371.083c59.006-56.22,154.799-69.377,226.778-31.146c26.843,14.257,54.523,35.59,84.136,28.742
			c19.452-4.498,33.857-20.246,48.969-33.294c17.294-14.933,37.587-27.349,60.135-31.042c22.548-3.693,47.565,2.577,62.545,19.829
			c19.338,22.272,17.617,55.336,12.21,84.518"/>
		<g>
			<path d="M919.298,393.58c0.509-0.213,1.095,0.029,1.308,0.539l5.902,14.115l10.296-11.316c0.372-0.409,1.006-0.441,1.413-0.069
				c0.408,0.372,0.434,1.009,0.067,1.415l-11.353,12.478c-0.23,0.252-0.573,0.371-0.91,0.312c-0.337-0.058-0.621-0.286-0.753-0.6
				l-6.508-15.564c-0.075-0.183-0.094-0.375-0.063-0.556C918.754,394.009,918.971,393.718,919.298,393.58z"/>
		</g>
	</g>
	<g>
		<path style="fill:none;stroke:#000000;stroke-width:2;stroke-linecap:round;stroke-miterlimit:10;stroke-dasharray:10,10;" d="
			M933.67,284.023c-58.606-45.63-144.77-52.362-209.752-16.389c-9.918,5.49-19.82,12.41-24.453,22.756
			c-4.633,10.346-1.743,24.76,8.629,29.335c14.378-12.444,8.908-37.952-6.351-49.299c-15.259-11.347-35.922-11.881-54.811-9.69
			c-18.889,2.191-37.947,6.632-56.71,3.539c-17.965-2.962-36.055-15.336-39.139-33.001"/>
		<g>
			<path d="M562.683,243.328c-0.415,0.364-1.048,0.32-1.412-0.096l-10.078-11.511l-6.171,14c-0.223,0.506-0.814,0.737-1.318,0.514
				c-0.504-0.223-0.732-0.819-0.513-1.32l6.804-15.437c0.138-0.311,0.426-0.533,0.764-0.585c0.338-0.052,0.679,0.074,0.904,0.33
				l11.112,12.693c0.13,0.15,0.208,0.326,0.236,0.507C563.063,242.748,562.95,243.093,562.683,243.328z"/>
		</g>
	</g>
	<g>
		<path style="fill:none;stroke:#000000;stroke-width:2;stroke-linecap:round;stroke-miterlimit:10;stroke-dasharray:10,10;" d="
			M123.085,448.587c-15.257,9.441-30.931,19.264-41.338,33.879c-10.407,14.615-14.304,35.403-4.547,50.46
			c9.232,14.248,27.526,19.476,44.427,21.094c25.914,2.48,52.653-0.844,77.608,6.569s48.32,30.981,43.097,56.484
			c-4.648,22.695-28.859,35.521-51.319,41.197s-47.012,7.944-65.116,22.397c-19.994,15.962-27.297,43.833-24.825,69.297
			c2.394,24.666,12.574,47.785,22.862,70.365"/>
		<g>
			<path d="M109.605,811.766c0.303-0.461,0.925-0.587,1.387-0.282l12.771,8.424l2.234-15.135c0.08-0.547,0.589-0.927,1.135-0.846
				c0.546,0.081,0.923,0.595,0.845,1.137l-2.464,16.689c-0.05,0.337-0.269,0.627-0.581,0.767c-0.312,0.14-0.674,0.109-0.959-0.078
				l-14.082-9.289c-0.165-0.11-0.287-0.259-0.362-0.427C109.393,812.425,109.411,812.063,109.605,811.766z"/>
		</g>
	</g>
	<g>
		<path style="fill:none;stroke:#000000;stroke-width:2;stroke-linecap:round;stroke-miterlimit:10;stroke-dasharray:10,10;" d="
			M172.177,498.663c-0.89-13.415,15.345-22.442,28.613-20.275c13.268,2.167,24.092,11.344,35.281,18.798
			c28.197,18.786,62.693,27.933,96.494,25.587c14.747-1.024,29.706-4.324,42.047-12.46c12.342-8.136,21.712-21.727,22.017-36.506
			c0.304-14.779-10.091-29.878-24.659-32.382c-12.94-2.224-26.281,5.778-32.647,17.262c-6.366,11.484-6.548,25.629-3.038,38.281
			c7.215,26.003,30.242,46.913,56.819,51.594c26.576,4.681,55.362-7.104,71.026-29.078c9.601-13.469,14.24-29.724,19.885-45.271
			c5.646-15.547,12.949-31.337,26.064-41.417c12.473-9.587,31.525-12.164,43.77-2.692"/>
		<g>
			<path d="M537.178,428.803c0.068-0.547,0.569-0.936,1.118-0.867l15.181,1.9l-4.698-14.56c-0.17-0.526,0.118-1.092,0.643-1.26
				c0.525-0.169,1.091,0.125,1.261,0.646l5.18,16.055c0.104,0.324,0.036,0.682-0.182,0.945c-0.218,0.263-0.556,0.396-0.895,0.355
				l-16.739-2.094c-0.197-0.026-0.372-0.105-0.513-0.222C537.28,429.488,537.135,429.155,537.178,428.803z"/>
		</g>
	</g>
	<g>
		<path style="fill:none;stroke:#000000;stroke-width:2;stroke-linecap:round;stroke-miterlimit:10;stroke-dasharray:10,10;" d="
			M518.925,522.97c5.729-17.08,11.552-34.359,21.286-49.518c9.735-15.159,23.951-28.22,41.369-32.821
			c36.766-9.712,72.335,19.674,110.23,22.842c37.233,3.113,74.723-23.092,84.971-58.933"/>
		<g>
			<path d="M782.37,420.269c-0.527,0.162-1.087-0.137-1.249-0.666l-4.481-14.628l-11.362,10.246
				c-0.411,0.371-1.044,0.339-1.413-0.071c-0.369-0.41-0.333-1.047,0.073-1.415l12.528-11.297c0.253-0.228,0.607-0.312,0.937-0.221
				c0.329,0.091,0.589,0.345,0.69,0.671l4.941,16.13c0.057,0.19,0.056,0.382,0.007,0.559
				C782.953,419.896,782.709,420.165,782.37,420.269z"/>
		</g>
	</g>
	<g>
		<path style="fill:none;stroke:#000000;stroke-width:2;stroke-linecap:round;stroke-miterlimit:10;stroke-dasharray:10,10;" d="
			M601.196,529.985c43.433-25.548,97.26-32.779,145.896-19.599c14.647,3.969,29.712,10.407,38.056,23.082
			c8.344,12.675,6.422,32.869-7.17,39.617c-13.808,6.856-31.549-4.703-35.067-19.713s3.869-30.734,14.405-41.989
			c22.215-23.731,59.057-31.908,89.721-21.118c29.906,10.523,52.8,37.974,59.295,68.996"/>
		<g>
			<path d="M894.008,547.95c0.391-0.389,1.026-0.384,1.415,0.009l10.766,10.871l5.299-14.352c0.191-0.519,0.767-0.786,1.284-0.594
				c0.517,0.192,0.781,0.772,0.593,1.286l-5.843,15.825c-0.119,0.319-0.393,0.559-0.727,0.631c-0.334,0.072-0.682-0.032-0.923-0.274
				l-11.871-11.986c-0.139-0.142-0.228-0.312-0.266-0.492C893.664,548.552,893.756,548.2,894.008,547.95z"/>
		</g>
	</g>
	<g>
		<path style="fill:none;stroke:#000000;stroke-width:2;stroke-linecap:round;stroke-miterlimit:10;stroke-dasharray:10,10;" d="
			M338.067,625.757c-65.52,13.025-118.174,74.35-121.137,141.087c-0.831,18.713,2.139,38.286,12.772,53.708
			c10.176,14.76,28.498,24.729,46.038,21.8"/>
		<g>
			<path d="M264.04,854.248c-0.377-0.403-0.353-1.037,0.052-1.414l11.189-10.434l-14.186-5.728c-0.513-0.207-0.762-0.79-0.555-1.301
				s0.795-0.757,1.304-0.554l15.643,6.316c0.316,0.128,0.547,0.409,0.609,0.745s-0.052,0.681-0.301,0.914l-12.338,11.505
				c-0.146,0.134-0.319,0.218-0.5,0.252C264.631,854.609,264.282,854.507,264.04,854.248z"/>
		</g>
	</g>
	<g>
		<path style="fill:none;stroke:#000000;stroke-width:2;stroke-linecap:round;stroke-miterlimit:10;stroke-dasharray:10,10;" d="
			M548.177,611.91c-25.595-30.358-71.68-41.34-108.215-25.786c-36.535,15.554-60.563,56.383-56.422,95.875
			c2.369,22.591,12.903,45.257,6.933,67.173c-3.889,14.276-15.03,26.371-28.939,31.417c-13.155,4.772-28.452,3.118-40.341-4.234"/>
		<g>
			<path d="M337.891,775.759c-0.005,0.552-0.459,0.995-1.012,0.989l-15.298-0.153l6.33,13.928c0.229,0.503,0.008,1.098-0.495,1.326
				c-0.502,0.228-1.098,0.001-1.326-0.497l-6.98-15.358c-0.14-0.31-0.114-0.673,0.073-0.96s0.508-0.457,0.848-0.455l16.869,0.168
				c0.198,0.003,0.382,0.062,0.535,0.162C337.712,775.09,337.894,775.404,337.891,775.759z"/>
		</g>
	</g>
	<g>
		<path style="fill:none;stroke:#000000;stroke-width:2;stroke-linecap:round;stroke-miterlimit:10;stroke-dasharray:10,10;" d="
			M452.035,745.927c-1.405-12.245-2.802-24.734-0.335-36.81s9.491-23.889,20.735-28.936c17.279-7.756,36.91,2.424,53.07,12.302
			c25.285,15.456,50.57,30.913,75.856,46.369c11.841,7.238,27.728,14.325,38.495,5.569c13.681-11.127,3.359-33.917,9.571-50.422
			c5.069-13.467,20.403-20.178,34.692-21.874c14.289-1.696,28.966,0.131,42.995-3.064c13.239-3.015,26.522-12.499,28.494-25.638"/>
		<g>
			<path d="M763.761,657.995c-0.493,0.248-1.094,0.048-1.343-0.447l-6.87-13.67l-9.483,12.006c-0.343,0.434-0.973,0.51-1.405,0.167
				c-0.432-0.342-0.503-0.976-0.165-1.407l10.457-13.238c0.212-0.267,0.546-0.41,0.886-0.375s0.639,0.242,0.793,0.546l7.575,15.073
				c0.088,0.178,0.12,0.367,0.101,0.55C764.274,657.529,764.078,657.835,763.761,657.995z"/>
		</g>
	</g>
	<g>
		<path style="fill:none;stroke:#000000;stroke-width:2;stroke-linecap:round;stroke-miterlimit:10;stroke-dasharray:10,10;" d="
			M72.604,790.504c26.895,36.771,44.763,80.095,51.609,125.135c1.492,9.814,1.509,21.872-6.845,27.235
			c-7.322,4.7-17.93,0.884-22.529-6.501s-4.159-17.001-1.213-25.188c10.183-28.296,45.241-39.94,75.128-36.604
			s57.437,17.421,86.643,24.586c45.25,11.101,94.531,4.796,135.558-17.27"/>
		<g>
			<path d="M383.279,896.704c-0.479-0.274-0.643-0.887-0.367-1.366l7.619-13.267l-15.244-1.295c-0.551-0.046-0.961-0.531-0.914-1.08
				c0.047-0.55,0.537-0.958,1.083-0.913l16.809,1.428c0.339,0.03,0.643,0.23,0.801,0.533c0.159,0.303,0.151,0.666-0.019,0.962
				l-8.401,14.629c-0.1,0.171-0.241,0.302-0.403,0.388C383.951,896.875,383.587,896.88,383.279,896.704z"/>
		</g>
	</g>
	<g>
		<path style="fill:none;stroke:#000000;stroke-width:2;stroke-linecap:round;stroke-miterlimit:10;stroke-dasharray:10,10;" d="
			M365.419,839.492c25.368-28.313,70.738-32.222,105.207-16.188s59.064,48.196,75.261,82.588c4.378,9.295,8.317,19.198,7.961,29.466
			c-0.356,10.268-6.041,20.984-15.758,24.321c-13.381,4.594-27.383-6.29-34.34-18.609c-14.416-25.53-10.228-60.22,9.849-81.586
			c20.077-21.366,54.439-27.701,80.816-14.9c13.913,6.753,26.357,18.385,41.812,18.98c17.683,0.68,33.579-16.733,32.026-34.176"/>
		<g>
			<path d="M679.308,841.872c-0.428,0.348-1.059,0.281-1.407-0.148l-9.643-11.877l-6.686,13.761
				c-0.241,0.498-0.841,0.706-1.336,0.465c-0.496-0.242-0.701-0.845-0.463-1.339l7.372-15.173c0.149-0.306,0.446-0.517,0.785-0.556
				c0.34-0.039,0.676,0.099,0.891,0.363l10.633,13.096c0.124,0.155,0.196,0.333,0.217,0.516
				C679.709,841.306,679.583,841.647,679.308,841.872z"/>
		</g>
	</g>
	<g>
		<path style="fill:none;stroke:#000000;stroke-width:2;stroke-linecap:round;stroke-miterlimit:10;stroke-dasharray:10,10;" d="
			M613.85,635.593c67.346-15.584,138.74-13.306,204.955,6.538c20.067,6.014,40.727,14.38,53.392,31.066
			c14.855,19.572,15.321,47.833,4.398,69.842c-10.923,22.01-31.775,38.011-54.689,46.879c-15.977,6.183-34.162,9.141-50.125,2.923
			c-15.963-6.218-28.244-23.783-24.055-40.394c3.316-13.149,15.785-22.397,28.905-25.825c13.12-3.429,26.954-2.093,40.446-0.734
			c22.036,2.22,46.281,5.529,60.877,22.187c18.06,20.611,13.427,51.918,7.727,78.723c-3.649,17.157-7.297,34.315-10.946,51.472"/>
		<g>
			<path d="M868.189,862.903c0.516-0.194,1.093,0.071,1.286,0.589l5.355,14.332l10.723-10.912c0.387-0.395,1.022-0.402,1.415-0.015
				c0.393,0.387,0.395,1.025,0.012,1.416l-11.824,12.032c-0.239,0.243-0.587,0.348-0.922,0.277
				c-0.334-0.071-0.609-0.309-0.729-0.628l-5.905-15.802c-0.068-0.186-0.079-0.378-0.041-0.558
				C867.629,863.311,867.857,863.028,868.189,862.903z"/>
		</g>
	</g>
	<g>
		
			<line style="fill:none;stroke:#000000;stroke-width:2;stroke-linecap:round;stroke-miterlimit:10;stroke-dasharray:10,10;" x1="583.296" y1="907.924" x2="835.012" y2="907.924"/>
		<g>
			<path d="M821.342,917.524c-0.297-0.465-0.158-1.084,0.309-1.381l12.904-8.219l-12.904-8.219
				c-0.467-0.297-0.605-0.916-0.309-1.381s0.92-0.6,1.383-0.307l14.229,9.063c0.287,0.184,0.463,0.502,0.463,0.844
				s-0.176,0.66-0.463,0.844l-14.229,9.063c-0.168,0.105-0.354,0.156-0.537,0.156C821.858,917.987,821.534,917.823,821.342,917.524z
				"/>
		</g>
	</g>
	<g>
		<path style="fill:none;stroke:#000000;stroke-width:2;stroke-linecap:round;stroke-miterlimit:10;stroke-dasharray:10,10;" d="
			M531.054,782.189c10.083-18.41,37.007-18.588,56.418-10.599c19.41,7.989,37.185,21.676,58.123,23.153
			c12.704,0.896,25.251-2.871,37.96-3.702c38.361-2.508,76.364,25.605,85.588,62.834"/>
		<g>
			<path d="M756.603,842.822c0.383-0.397,1.017-0.406,1.415-0.022l10.998,10.635l4.987-14.464c0.18-0.523,0.75-0.802,1.271-0.622
				c0.521,0.18,0.797,0.755,0.62,1.273l-5.499,15.948c-0.112,0.322-0.38,0.567-0.713,0.647c-0.332,0.08-0.683-0.017-0.928-0.254
				l-12.128-11.726c-0.142-0.139-0.234-0.307-0.277-0.486C756.273,843.431,756.357,843.078,756.603,842.822z"/>
		</g>
	</g>
	<g>
		<path style="fill:none;stroke:#000000;stroke-width:2;stroke-linecap:round;stroke-miterlimit:10;stroke-dasharray:10,10;" d="
			M936.831,621.728c-16.632,16.723-15.622,44.189-8.604,66.706c7.018,22.517,18.913,43.92,20.56,67.448
			c1.88,26.848-9.791,52.503-16.683,78.52c-6.685,25.237-7.695,55.319,9.658,74.433"/>
		<g>
			<path d="M925.521,905.091c0.146-0.532,0.698-0.844,1.231-0.697l14.751,4.058l-2.56-15.083c-0.093-0.545,0.273-1.063,0.817-1.155
				c0.544-0.092,1.062,0.28,1.155,0.82l2.823,16.632c0.056,0.336-0.062,0.68-0.315,0.909c-0.253,0.229-0.608,0.312-0.936,0.223
				l-16.265-4.474c-0.191-0.054-0.353-0.157-0.476-0.294C925.523,905.784,925.427,905.434,925.521,905.091z"/>
		</g>
	</g>
	<g>
		<path style="fill:none;stroke:#000000;stroke-width:2;stroke-linecap:round;stroke-miterlimit:10;stroke-dasharray:10,10;" d="
			M831.073,427.055c29.04-2.51,56.696,15.889,73.381,39.79c16.226,23.244,24.043,51.132,31.36,78.555"/>
		<g>
			<path d="M922.918,534.77c0.37-0.409,1.003-0.44,1.413-0.068l11.344,10.265l4.506-14.621c0.163-0.529,0.723-0.827,1.25-0.663
				c0.527,0.163,0.822,0.728,0.662,1.252l-4.968,16.121c-0.101,0.325-0.361,0.579-0.691,0.67c-0.33,0.091-0.683,0.005-0.936-0.223
				l-12.509-11.319c-0.146-0.134-0.244-0.299-0.293-0.477C922.608,535.389,922.68,535.033,922.918,534.77z"/>
		</g>
	</g>
</g>
</svg>
